# 3ds Max Wavefront OBJ Exporter v0.97b - (c)2007 guruware
# File Created: 20.05.2017 14:15:21

mtllib Glass Shard 1.mtl

#
# object Box001
#

v  -19.3952 0.0000 -2.2287
v  -19.3952 0.0000 -0.3901
v  -14.8300 0.0000 -2.6103
v  -17.0073 0.0000 -5.1271
v  -16.4120 0.0000 -9.5450
v  -14.8300 -0.1313 -2.6103
v  -19.3952 -0.1313 -0.3901
v  -19.3952 -0.1313 -2.2287
v  -16.4120 -0.1313 -9.5450
v  -16.9987 -0.1313 -5.0591
# 10 vertices

vn 0.0000 1.0000 -0.0000
vn 0.0000 -1.0000 -0.0000
vn 0.4373 0.0000 0.8993
vn 0.9910 -0.0000 0.1335
vn 0.9861 -0.0225 -0.1648
vn 0.9080 -0.1409 -0.3947
vn 0.9911 0.0025 0.1335
vn -0.9260 0.0000 -0.3776
vn -1.0000 0.0000 -0.0000
vn 0.7488 -0.0074 -0.6628
vn 0.7486 0.0000 -0.6630
# 11 vertex normals

vt 0.0000 1.0000 0.0000
vt 0.0000 0.0000 0.0000
vt 1.0000 0.0000 0.0000
vt 1.0000 0.5174 0.0000
vt 1.0000 1.0000 0.0000
vt 0.0000 0.5100 0.0000
vt 0.5174 0.0000 0.0000
vt 0.5100 1.0000 0.0000
# 8 texture coords

g Box001
usemtl wire_166229229
s 2
f 1/1/1 2/2/1 3/3/1 4/4/1 5/5/1 
s 4
f 6/2/2 7/3/2 8/5/2 9/1/2 10/6/2 
s 8
f 3/3/3 2/2/3 7/1/3 6/5/3 
s 16
f 5/3/4 4/7/5 10/8/6 9/5/7 
s 32
f 1/3/8 5/2/8 9/1/8 8/5/8 
s 64
f 2/3/9 1/2/9 8/1/9 7/5/9 
s 16
f 4/7/5 3/2/10 6/1/11 10/8/6 
# 7 polygons

