# 3ds Max Wavefront OBJ Exporter v0.97b - (c)2007 guruware
# File Created: 22.05.2017 12:47:03

mtllib Person.mtl

#
# object Cylinder001
#

v  -0.0000 86.8964 18.8466
v  -0.0000 92.9411 15.3567
v  -0.0000 97.4276 10.0098
v  -0.0000 99.8148 3.4509
v  -0.0000 99.8148 -3.5289
v  0.0000 97.4276 -10.0878
v  0.0000 92.9410 -15.4346
v  0.0000 86.8963 -18.9245
v  0.0000 80.0225 -20.1366
v  0.0000 73.1488 -18.9245
v  0.0000 67.1041 -15.4346
v  0.0000 62.6175 -10.0878
v  0.0000 60.2303 -3.5289
v  0.0000 60.2303 3.4509
v  -0.0000 62.6175 10.0098
v  -0.0000 67.1041 15.3567
v  -0.0000 73.1488 18.8466
v  -0.0000 80.0226 20.0586
v  16.8968 80.0226 20.0586
v  16.8968 73.1488 18.8466
v  16.8968 67.1041 15.3567
v  16.8968 62.6175 10.0098
v  16.8968 60.2303 3.4509
v  16.8968 60.2303 -3.5289
v  16.8968 62.6175 -10.0878
v  16.8968 67.1041 -15.4346
v  16.8968 73.1488 -18.9245
v  16.8968 80.0225 -20.1366
v  16.8968 86.8963 -18.9245
v  16.8968 92.9410 -15.4346
v  16.8968 97.4276 -10.0878
v  16.8968 99.8148 -3.5289
v  16.8968 99.8148 3.4509
v  16.8968 97.4276 10.0098
v  16.8968 92.9410 15.3567
v  16.8968 86.8964 18.8466
# 36 vertices

vn -1.0000 -0.0000 -0.0000
vn 1.0000 0.0000 0.0000
vn 1.0000 -0.0000 0.0000
vn 1.0000 -0.0000 -0.0000
vn 1.0000 0.0000 -0.0000
vn 0.0000 0.0000 1.0000
vn 0.0000 -0.3420 0.9397
vn 0.0000 -0.6428 0.7660
vn 0.0000 -0.8660 0.5000
vn 0.0000 -0.9848 0.1736
vn 0.0000 -0.9848 -0.1736
vn 0.0000 -0.8660 -0.5000
vn 0.0000 -0.6428 -0.7660
vn 0.0000 -0.3420 -0.9397
vn -0.0000 -0.0000 -1.0000
vn -0.0000 0.3420 -0.9397
vn 0.0000 0.6428 -0.7660
vn 0.0000 0.8660 -0.5000
vn 0.0000 0.9848 -0.1736
vn 0.0000 0.9848 0.1736
vn 0.0000 0.8660 0.5000
vn 0.0000 0.6428 0.7660
vn 0.0000 0.3420 0.9397
# 23 vertex normals

vt 0.1082 0.6043 0.0000
vt 0.0578 0.5752 0.0000
vt 0.0204 0.5306 0.0000
vt 0.0005 0.4759 0.0000
vt 0.0005 0.4177 0.0000
vt 0.0204 0.3630 0.0000
vt 0.0578 0.3184 0.0000
vt 0.1082 0.2893 0.0000
vt 0.1656 0.2792 0.0000
vt 0.2229 0.2893 0.0000
vt 0.2733 0.3184 0.0000
vt 0.3107 0.3630 0.0000
vt 0.3306 0.4177 0.0000
vt 0.3306 0.4759 0.0000
vt 0.3107 0.5306 0.0000
vt 0.2733 0.5752 0.0000
vt 0.2229 0.6043 0.0000
vt 0.1656 0.6144 0.0000
vt 0.8288 0.6144 0.0000
vt 0.8862 0.6043 0.0000
vt 0.9366 0.5752 0.0000
vt 0.9740 0.5306 0.0000
vt 0.9939 0.4759 0.0000
vt 0.9939 0.4177 0.0000
vt 0.9740 0.3630 0.0000
vt 0.9366 0.3184 0.0000
vt 0.8862 0.2893 0.0000
vt 0.8288 0.2792 0.0000
vt 0.7715 0.2893 0.0000
vt 0.7211 0.3184 0.0000
vt 0.6837 0.3630 0.0000
vt 0.6638 0.4177 0.0000
vt 0.6638 0.4759 0.0000
vt 0.6837 0.5306 0.0000
vt 0.7211 0.5752 0.0000
vt 0.7715 0.6043 0.0000
vt 0.6165 0.0005 0.0000
vt 0.6769 0.0005 0.0000
vt 0.6769 0.2765 0.0000
vt 0.6165 0.2765 0.0000
vt 0.7299 0.0005 0.0000
vt 0.7299 0.2765 0.0000
vt 0.7761 0.0005 0.0000
vt 0.7761 0.2765 0.0000
vt 0.8337 0.0005 0.0000
vt 0.8337 0.2765 0.0000
vt 0.8950 0.0005 0.0000
vt 0.8950 0.2765 0.0000
vt 0.9526 0.0005 0.0000
vt 0.9526 0.2765 0.0000
vt 0.9995 0.0005 0.0000
vt 0.9995 0.2765 0.0000
vt 0.0040 0.0014 0.0000
vt 0.0571 0.0014 0.0000
vt 0.0571 0.2773 0.0000
vt 0.0040 0.2773 0.0000
vt 0.1174 0.0014 0.0000
vt 0.1174 0.2773 0.0000
vt 0.1778 0.0014 0.0000
vt 0.1778 0.2773 0.0000
vt 0.2320 0.0014 0.0000
vt 0.2320 0.2773 0.0000
vt 0.2790 0.0014 0.0000
vt 0.2790 0.2773 0.0000
vt 0.3365 0.0014 0.0000
vt 0.3365 0.2773 0.0000
vt 0.3978 0.0014 0.0000
vt 0.3978 0.2773 0.0000
vt 0.4554 0.0014 0.0000
vt 0.4554 0.2773 0.0000
vt 0.5031 0.0005 0.0000
vt 0.5031 0.2765 0.0000
vt 0.5562 0.0005 0.0000
vt 0.5562 0.2765 0.0000
# 74 texture coords

g Cylinder001
usemtl wire_228184153
s 1
f 1/1/1 2/2/1 3/3/1 4/4/1 5/5/1 6/6/1 7/7/1 8/8/1 9/9/1 10/10/1 11/11/1 12/12/1 13/13/1 14/14/1 15/15/1 16/16/1 17/17/1 18/18/1 
f 19/19/2 20/20/2 21/21/3 22/22/2 23/23/3 24/24/2 25/25/4 26/26/2 27/27/4 28/28/5 29/29/5 30/30/2 31/31/2 32/32/3 33/33/2 34/34/2 35/35/2 36/36/2 
s 8
f 18/37/6 17/38/7 20/39/7 19/40/6 
f 17/38/7 16/41/8 21/42/8 20/39/7 
f 16/41/8 15/43/9 22/44/9 21/42/8 
f 15/43/9 14/45/10 23/46/10 22/44/9 
f 14/45/10 13/47/11 24/48/11 23/46/10 
f 13/47/11 12/49/12 25/50/12 24/48/11 
f 12/49/12 11/51/13 26/52/13 25/50/12 
f 11/53/13 10/54/14 27/55/14 26/56/13 
f 10/54/14 9/57/15 28/58/15 27/55/14 
f 9/57/15 8/59/16 29/60/16 28/58/15 
f 8/59/16 7/61/17 30/62/17 29/60/16 
f 7/61/17 6/63/18 31/64/18 30/62/17 
f 6/63/18 5/65/19 32/66/19 31/64/18 
f 5/65/19 4/67/20 33/68/20 32/66/19 
f 4/67/20 3/69/21 34/70/21 33/68/20 
f 3/69/21 2/71/22 35/72/22 34/70/21 
f 2/71/22 1/73/23 36/74/23 35/72/22 
f 1/73/23 18/37/6 19/40/6 36/74/23 
# 20 polygons

#
# object Box001
#

v  0.0000 59.6958 -30.4281
v  0.0000 -51.6506 0.0066
v  -0.0000 59.6958 29.4811
v  16.7212 -51.6506 0.0066
v  16.7212 59.6958 -30.4281
v  16.7211 59.6958 29.4811
# 6 vertices

vn -1.0000 -0.0000 -0.0000
vn 1.0000 0.0000 0.0000
vn -0.0000 -0.2559 0.9667
vn -0.0000 1.0000 -0.0000
vn 0.0000 -0.2637 -0.9646
# 5 vertex normals

vt 0.9937 0.0005 0.0000
vt 0.7446 0.9117 0.0000
vt 0.5034 0.0005 0.0000
vt 0.5125 0.0834 0.0000
vt 0.7616 0.9946 0.0000
vt 0.2713 0.9946 0.0000
vt 0.1442 0.9272 0.0000
vt 0.1442 0.0005 0.0000
vt 0.2834 0.0005 0.0000
vt 0.2834 0.9272 0.0000
vt 0.8627 0.9937 0.0000
vt 0.8627 0.5034 0.0000
vt 0.9995 0.5034 0.0000
vt 0.9995 0.9937 0.0000
vt 0.0005 0.9282 0.0000
vt 0.0005 0.0005 0.0000
vt 0.1398 0.0005 0.0000
vt 0.1398 0.9282 0.0000
# 18 texture coords

g Box001
usemtl wire_028089177
s 2
f 37/75/24 38/76/24 39/77/24 
s 4
f 40/78/25 41/79/25 42/80/25 
s 16
f 39/81/26 38/82/26 40/83/26 42/84/26 
s 32
f 37/85/27 39/86/27 42/87/27 41/88/27 
s 64
f 38/89/28 37/90/28 41/91/28 40/92/28 
# 3 polygons - 2 triangles

